# xmcd CD database file
#
# Track frame offsets:
#	150
#	32873
#	69771
#	91387
#	111983
#	130047
#	149703
#	170868
#	180359
#	200861
#	213330
#
# Disc length: 3089 seconds
#
# Revision: 1
# Processed by: cddbd v1.5.2PL0 Copyright (c) Steve Scherf et al.
# Submitted via: CDex 1.51
#
DISCID=a70c0f0b
DTITLE=Steve Johnson - Live - Blues From The Roadhouse
DYEAR=2003
DGENRE=Blues
TTITLE0=Prison Of Love (Live)
TTITLE1=Right Place, Wrong Time (Live)
TTITLE2=Mean Old Christmas (Live)
TTITLE3=Nothing I Can Do About You (Live)
TTITLE4=Down At The Magnolia (Live)
TTITLE5=Early In The Morning (Live)
TTITLE6=Walking Spanish Down The Hall (Live)
TTITLE7=Chreey Pink And Apple Blossom White (Live)
TTITLE8=Big Legs (Live)
TTITLE9=Change My Will (Live)
TTITLE10=Beer (Live)
EXTD=YEAR: 2003
EXTT0=
EXTT1=
EXTT2=
EXTT3=
EXTT4=
EXTT5=
EXTT6=
EXTT7=
EXTT8=
EXTT9=
EXTT10=
PLAYORDER=
